<svg xmlns="http://www.w3.org/2000/svg" viewBox="0 0 24 24" fill="#1769FF" role="img" aria-label="Behance">
  <path d="M6.938 4.503c.702 0 1.34.06 1.92.188.577.13 1.07.334 1.485.62.41.286.73.65.96 1.09.227.44.34.95.34 1.52 0 .66-.16 1.22-.48 1.68-.32.46-.76.84-1.32 1.14.79.23 1.4.63 1.83 1.2.43.57.65 1.28.65 2.13 0 .62-.12 1.17-.37 1.65-.24.48-.58.89-1.01 1.22-.43.34-.94.59-1.53.77-.6.17-1.25.26-1.95.26H2V4.503h4.938zm-.198 5.01c.57 0 1.02-.13 1.35-.4.33-.26.5-.66.5-1.18 0-.5-.15-.88-.46-1.15-.3-.27-.77-.4-1.4-.4H4.437v3.13h2.303zm.09 5.2c.62 0 1.1-.15 1.44-.45.35-.3.52-.74.52-1.32 0-.58-.18-1.02-.53-1.32-.35-.3-.86-.45-1.53-.45H4.437v3.54h2.393zM15.298 8.89c.73 0 1.4.13 2 .4.6.26 1.1.64 1.5 1.13.4.5.7 1.08.9 1.76.2.68.3 1.43.3 2.25h-5.8c.02.58.18 1.03.48 1.35.3.32.73.48 1.3.48.37 0 .68-.08.93-.24.25-.16.45-.38.6-.66h2.93c-.15.5-.4.96-.75 1.38-.35.42-.78.78-1.28 1.08-.5.3-1.06.53-1.68.7-.62.16-1.28.24-1.98.24-.9 0-1.7-.16-2.4-.47-.7-.32-1.3-.76-1.78-1.32-.48-.56-.85-1.22-1.1-1.98-.25-.76-.38-1.58-.38-2.46 0-.87.12-1.68.37-2.43.25-.75.6-1.4 1.06-1.95.46-.55 1.02-.98 1.68-1.28.66-.3 1.4-.45 2.22-.45zm1.65 4.03c-.12-.5-.35-.88-.7-1.15-.35-.27-.8-.4-1.35-.4-.54 0-.98.13-1.32.4-.34.27-.56.65-.66 1.15h4.03zM13.998 4.503h5.55v1.86h-5.55V4.503z"/>
</svg>
